<svg width="25" height="24" viewBox="0 0 25 24" fill="none" xmlns="http://www.w3.org/2000/svg">
<path d="M14.8545 1.5129C15.3485 1.22077 15.8845 1.21391 16.4092 1.29318C16.9212 1.37058 17.5518 1.55243 18.2988 1.76583L18.3457 1.77951C19.0748 1.98776 19.6772 2.15955 20.1543 2.35079C20.6565 2.5521 21.0856 2.79945 21.4336 3.19259C21.5458 3.31941 21.6481 3.45512 21.7393 3.59786C22.0217 4.04037 22.1416 4.52079 22.1973 5.0588C22.25 5.56931 22.25 6.19472 22.25 6.95139V17.0491C22.25 17.8057 22.25 18.4312 22.1973 18.9416C22.1416 19.4797 22.0217 19.9601 21.7393 20.4026C21.6481 20.5453 21.5458 20.681 21.4336 20.8079C21.0856 21.2011 20.6565 21.4483 20.1543 21.6497C19.6771 21.8409 19.0749 22.0136 18.3457 22.2219L18.2988 22.2346L18.2451 22.2502C17.5215 22.457 16.9089 22.6317 16.4092 22.7073C15.8845 22.7865 15.3485 22.7797 14.8545 22.4875C14.71 22.4021 14.575 22.3002 14.4531 22.1848C14.0363 21.7901 13.8824 21.2765 13.8145 20.7502H12.7334C11.8108 20.7502 11.0183 20.7523 10.3877 20.6682C9.72921 20.5804 9.09833 20.3823 8.58594 19.8743C8.01257 19.3056 7.82821 18.5881 7.75488 17.8489C7.70044 17.2994 8.10198 16.8098 8.65137 16.7551C9.20091 16.7007 9.69058 17.1021 9.74512 17.6516C9.80072 18.212 9.90891 18.3698 9.99414 18.4543C10.0724 18.5319 10.2124 18.6272 10.6514 18.6858C11.1191 18.7481 11.7547 18.7502 12.7334 18.7502H13.75V5.25022H12.7334C11.7547 5.25022 11.1191 5.25231 10.6514 5.31466C10.2124 5.37326 10.0724 5.46855 9.99414 5.54611C9.90891 5.63068 9.80072 5.78839 9.74512 6.34885C9.69059 6.8984 9.20091 7.29981 8.65137 7.24534C8.10197 7.19067 7.70044 6.70103 7.75488 6.15159C7.82821 5.41238 8.01257 4.6948 8.58594 4.12618C9.09833 3.61817 9.72921 3.42006 10.3877 3.33224C11.0183 3.24819 11.8108 3.25021 12.7334 3.25021H13.8145C13.8824 2.72396 14.0363 2.21034 14.4531 1.81564C14.575 1.70026 14.71 1.59838 14.8545 1.5129ZM7.94531 8.90743C8.27274 8.46299 8.89814 8.36746 9.34277 8.69455C9.41471 8.74889 9.63395 8.91483 9.75586 9.00997C9.99856 9.1994 10.3254 9.46183 10.6553 9.74826C10.9801 10.0303 11.3311 10.3554 11.6084 10.6692C11.7461 10.825 11.8873 11.0023 11.999 11.1877C12.0943 11.3458 12.25 11.6396 12.25 12.0002C12.25 12.3608 12.0943 12.6547 11.999 12.8127C11.8873 12.9981 11.7461 13.1755 11.6084 13.3313C11.3311 13.6451 10.9801 13.9701 10.6553 14.2522C10.3254 14.5386 9.99858 14.8011 9.75586 14.9905C9.63397 15.0856 9.41475 15.2515 9.34277 15.3059C8.89812 15.633 8.27274 15.5375 7.94531 15.093C7.63828 14.6761 7.70238 14.1002 8.07812 13.76C8.14292 13.7111 8.41304 13.502 8.52539 13.4143C8.67268 13.2994 8.84942 13.1559 9.03711 13.0002H3.75C3.19772 13.0002 2.75 12.5525 2.75 12.0002C2.75007 11.448 3.19776 11.0002 3.75 11.0002H9.03711C8.84942 10.8446 8.67268 10.7011 8.52539 10.5862C8.41301 10.4985 8.22195 10.3538 8.15723 10.3049C7.71256 9.97737 7.61781 9.35213 7.94531 8.90743Z" fill="#3972FF"/>
</svg>
